<?xml version="1.0" encoding="UTF-8"?>
<svg version="1.1" xmlns="http://www.w3.org/2000/svg" width="1024" height="1024">
<path d="M0 0 C337.92 0 675.84 0 1024 0 C1024 337.92 1024 675.84 1024 1024 C686.08 1024 348.16 1024 0 1024 C0 686.08 0 348.16 0 0 Z " fill="#040404" transform="translate(0,0)"/>
<path d="M0 0 C10.68358827 -0.52761282 21.36203545 -0.94408375 32.05619144 -1.19167995 C37.02539244 -1.3106698 41.98519125 -1.47121714 46.94897461 -1.73510742 C82.98356114 -3.60111685 82.98356114 -3.60111685 94.25705242 6.45701122 C98.62258997 10.69519345 102.32102254 15.41144102 105.91574097 20.3132019 C108.37433399 23.48255031 111.07497631 25.93831128 114.1598053 28.4780426 C117.02018703 30.84375919 119.58667644 33.48121176 122.1875 36.125 C122.7343042 36.67559082 123.2811084 37.22618164 123.84448242 37.79345703 C126.14274364 40.1077946 128.43487516 42.4281665 130.72753906 44.74804688 C136.30853288 50.38932431 141.84808291 55.97073462 147.89453125 61.1171875 C153.56687884 66.18967644 158.80854768 71.76279938 164.15478516 77.17529297 C169.65454854 82.73705309 175.13776098 88.24077913 181.09570312 93.31835938 C185.72450176 97.40594463 189.96175736 101.92697506 194.2890625 106.328125 C199.02065561 111.10849742 203.87547599 115.64429176 209 120 C210.33335302 121.14581042 211.66668722 122.29164275 213 123.4375 C213.99 124.283125 214.98 125.12875 216 126 C216.70125 125.28714844 217.4025 124.57429688 218.125 123.83984375 C219.08319293 122.87225677 220.04153439 121.90481687 221 120.9375 C221.45761719 120.47150391 221.91523438 120.00550781 222.38671875 119.52539062 C225.07132259 116.82239909 227.82484806 114.26344462 230.71875 111.78515625 C235.91052946 107.28985005 240.68123953 102.3878962 245.5 97.5 C250.87434475 92.04854844 256.24128292 86.70109542 262.05664062 81.72070312 C265.70726511 78.48834114 269.0848528 74.97735389 272.5 71.5 C276.48748367 67.43988457 280.45002555 63.41460888 284.78125 59.71875 C290.49489065 54.80288415 295.70847078 49.36012312 301 44 C303.08026543 41.89276816 305.16318797 39.78824951 307.25 37.6875 C307.7534494 37.17933243 308.2568988 36.67116486 308.77560425 36.14759827 C311.45597228 33.46438718 314.1937845 30.95304365 317.1328125 28.55859375 C320.53782164 25.69034767 322.90784675 22.46648801 325.4921875 18.84765625 C330.875 12.0625 330.875 12.0625 346 0 C362.5 0 379 0 396 0 C396 107.25 396 214.5 396 325 C422.73 325 449.46 325 477 325 C477 367.24 477 409.48 477 453 C439.07036669 454.69272744 439.07036669 454.69272744 422.88671875 455.05078125 C411.80701859 455.29791764 400.7411341 455.58569298 389.67333984 456.16845703 C323.03881939 459.60898181 323.03881939 459.60898181 303.2457006 442.34784865 C293.9079496 433.86243375 285.99562494 423.89274127 279.00725365 413.41860008 C276.62139324 410.54380537 273.95076705 408.24520497 271.11623919 405.82123005 C267.84933209 403.00973813 264.72173764 400.05545941 261.58410645 397.10137939 C260.88306715 396.4428229 260.18202785 395.78426641 259.45974493 395.10575366 C257.13325163 392.91801547 254.80947131 390.72742792 252.48632812 388.53613281 C251.66811459 387.76498138 250.84990105 386.99382996 250.00689316 386.1993103 C234.33131083 371.41564583 218.81015827 356.47372599 203.35927477 341.45584662 C200.82881171 338.99647041 198.29711589 336.53836682 195.76464844 334.08105469 C195.26076794 333.592085 194.75688744 333.10311532 194.23773783 332.59932837 C186.12606997 324.73382408 177.91494352 316.98082699 169.65999657 309.26614705 C161.1313061 301.29099105 152.72346647 293.20167581 144.4102397 285.00213122 C139.75889423 280.42066728 135.06734128 275.90286067 130.23878479 271.5074234 C112.59388304 255.38753447 97.8349427 241.06051193 96.63623518 216.15083501 C96.16213481 202.40124346 97.26614893 188.63161304 99 175 C100.28161658 175.95534059 101.56242731 176.91176231 102.84289742 177.86863899 C103.91290416 178.66737566 103.91290416 178.66737566 105.00452721 179.48224843 C113.40854103 185.87432016 120.7586484 193.62953527 128.18375015 201.10858536 C129.99054522 202.92837043 131.80064392 204.74481446 133.61154175 206.56051636 C137.45221687 210.41250556 141.28890882 214.26844646 145.125 218.125 C149.58351296 222.60724777 154.04371634 227.08778716 158.5081749 231.56411362 C160.27822335 233.34057096 162.04519734 235.12004602 163.81204224 236.89968872 C170.22009941 243.36419495 170.22009941 243.36419495 176.96826172 249.46826172 C182.38407533 254.09241244 187.32813924 259.21817309 192.34268188 264.26751709 C194.22496176 266.16271893 196.11048618 268.05464053 197.99682617 269.94580078 C202.67828905 274.64053678 207.35425545 279.34073484 212.03039551 284.04077148 C215.99325528 288.0234563 219.95822178 292.0040216 223.92593384 295.98187256 C225.77131359 297.83367034 227.61362294 299.68848449 229.45581055 301.54345703 C234.46991798 306.57923135 239.49807311 311.52002033 244.90869141 316.13354492 C249.3854507 320.12897158 253.56088928 324.45470049 257.78709412 328.71192932 C259.56855248 330.50632335 261.35326638 332.29742409 263.13879395 334.08776855 C267.5698343 338.53207369 271.9953724 342.98184463 276.42108154 347.43145752 C280.17255651 351.20276702 283.92614469 354.97194978 287.68247986 358.73841858 C289.4281471 360.49049796 291.17073952 362.24559477 292.91320801 364.00085449 C293.99820543 365.09033418 295.08376018 366.17925916 296.16992188 367.26757812 C296.68884349 367.78799525 297.2077651 368.30841238 297.74241161 368.84459972 C300.40712533 371.49441252 303.12385843 373.98484484 306.03833008 376.35473633 C309.13369559 378.96350721 311.48795216 381.83583281 313.92731571 385.03714848 C322.7418215 396.52997594 332.37235024 408.46907037 347.31495857 411.09594917 C359.83176159 412.63675028 372.46719798 412.07322419 385.02966309 411.45483398 C391.54625559 411.17229403 398.06860083 411.11415629 404.59008026 411.01644135 C414.40787183 410.8451605 424.17713473 410.3980406 434 410 C434 395.81 434 381.62 434 367 C407.27 367 380.54 367 353 367 C352.67 265.69 352.34 164.38 352 60 C347.38 64.62 342.76 69.24 338 74 C333.9375 77.5625 333.9375 77.5625 332.12109375 79.09765625 C328.52570164 82.32225285 325.18055136 85.80029979 321.78588867 89.23364258 C318.27947118 92.76456976 314.68585881 96.10696017 310.890625 99.328125 C308.66352921 101.29754029 306.58785046 103.38374342 304.5 105.5 C301.85269566 108.18326093 299.18903057 110.75256901 296.3125 113.1875 C292.33440675 116.59159983 288.67999412 120.281264 285 124 C280.76932164 128.27517083 276.51605082 132.40949546 271.921875 136.296875 C268.60088894 139.23986264 265.54330312 142.45010139 262.42578125 145.60546875 C260.40257727 147.60260891 258.35339764 149.47490684 256.1875 151.3125 C252.42865161 154.52238879 248.97257049 157.98789548 245.5 161.5 C241.47344432 165.57234451 237.40727407 169.47982515 233.03515625 173.18359375 C229.39467464 176.43277599 226.02261164 179.96094583 222.61328125 183.44921875 C220.18536595 185.81906732 217.68698519 187.9327159 215 190 C212.10316802 188.67980962 209.94908923 187.23197726 207.63671875 185.05078125 C207.00443359 184.45716797 206.37214844 183.86355469 205.72070312 183.25195312 C204.71426758 182.29192383 204.71426758 182.29192383 203.6875 181.3125 C202.98689453 180.65056641 202.28628906 179.98863281 201.56445312 179.30664062 C196.01545004 174.03633187 190.58116938 168.65506887 185.2253418 163.1887207 C182.34631106 160.26650655 179.42510963 157.46912821 176.3046875 154.8046875 C171.88101527 150.95300685 167.74724329 146.85718363 163.625 142.6875 C162.47185303 141.5286731 162.47185303 141.5286731 161.29541016 140.34643555 C158.0414017 137.07623964 154.79343734 133.8000651 151.54492188 130.52441406 C149.15704648 128.11834715 146.76609207 125.71536962 144.375 123.3125 C143.65393066 122.58313232 142.93286133 121.85376465 142.18994141 121.10229492 C138.19857931 117.09194399 134.1030525 113.28586756 129.81732178 109.59246826 C127.33515141 107.41741177 125.01210753 105.1071811 122.6953125 102.7578125 C121.78265625 101.83742188 120.87 100.91703125 119.9296875 99.96875 C118.51425084 98.53359973 117.09881809 97.09844558 115.68359375 95.66308594 C114.29367409 94.25517685 112.90079023 92.85019602 111.5078125 91.4453125 C110.68941895 90.61531738 109.87102539 89.78532227 109.02783203 88.93017578 C107.14739471 86.9517258 107.14739471 86.9517258 105 86 C105 85.34 105 84.68 105 84 C104.44602539 83.77272217 103.89205078 83.54544434 103.32128906 83.3112793 C100.32266566 81.61737876 98.27205539 79.47777093 95.859375 77.01953125 C95.37349915 76.52845383 94.88762329 76.0373764 94.38702393 75.53141785 C92.83649697 73.96314352 91.29280844 72.38836518 89.75 70.8125 C87.72743902 68.75305439 85.70162234 66.69689474 83.671875 64.64453125 C83.18037964 64.14744659 82.68888428 63.65036194 82.18249512 63.13821411 C78.88919067 59.8312924 75.50413572 56.69326402 71.92285156 53.7019043 C69.16483366 51.26079932 66.60438633 48.60438633 64 46 C57.07 45.67 50.14 45.34 43 45 C43 179.64 43 314.28 43 453 C28.48 453 13.96 453 -1 453 C-1.02265662 399.91178582 -1.04053666 346.82357282 -1.05106533 293.73535475 C-1.05231588 287.45263884 -1.05361021 281.16992293 -1.05493164 274.88720703 C-1.05519395 273.63655215 -1.05545626 272.38589726 -1.05572652 271.09734374 C-1.06006521 250.90783187 -1.06794276 230.71832288 -1.0771528 210.52881271 C-1.08653959 189.77711064 -1.09206621 169.02541006 -1.09408849 148.27370596 C-1.09545333 135.49251587 -1.09974711 122.71133392 -1.10791647 109.93014634 C-1.11324606 101.138284 -1.11479033 92.3464258 -1.11350138 83.55456197 C-1.1128676 78.49957696 -1.11376444 73.44460607 -1.11920547 68.38962364 C-1.14259711 45.5719002 -0.90534804 22.80150872 0 0 Z " fill="#FDFDFD" transform="translate(273,266)"/>
</svg>
