<?xml version="1.0" encoding="UTF-8"?>
<!DOCTYPE svg PUBLIC "-//W3C//DTD SVG 1.1//EN" "http://www.w3.org/Graphics/SVG/1.1/DTD/svg11.dtd">
<svg xmlns="http://www.w3.org/2000/svg" version="1.1" width="500px" height="500px" style="shape-rendering:geometricPrecision; text-rendering:geometricPrecision; image-rendering:optimizeQuality; fill-rule:evenodd; clip-rule:evenodd" xmlns:xlink="http://www.w3.org/1999/xlink">
<g><path style="opacity:0.059" fill="#696767" d="M 174.5,129.5 C 160.833,129.5 147.167,129.5 133.5,129.5C 133.81,132.713 133.477,135.713 132.5,138.5C 132.5,135.167 132.5,131.833 132.5,128.5C 146.677,128.171 160.677,128.504 174.5,129.5 Z"/></g>
<g><path style="opacity:0.997" fill="#f9f8f8" d="M 330.5,287.5 C 342.402,288.186 354.402,288.852 366.5,289.5C 366.5,289.833 366.5,290.167 366.5,290.5C 365.503,309.993 365.17,329.66 365.5,349.5C 339.167,349.5 312.833,349.5 286.5,349.5C 278.86,341.86 271.194,334.194 263.5,326.5C 263.005,324.518 262.505,322.518 262,320.5C 261.586,320.957 261.086,321.291 260.5,321.5C 259.378,320.37 258.044,319.703 256.5,319.5C 256.512,316.858 255.179,315.525 252.5,315.5C 252.5,313.5 251.5,312.5 249.5,312.5C 226.812,290.479 204.479,268.146 182.5,245.5C 181.383,235.547 181.217,225.547 182,215.5C 183.129,217.141 184.629,218.141 186.5,218.5C 194.5,226.167 202.5,233.833 210.5,241.5C 210.525,244.179 211.858,245.512 214.5,245.5C 214.5,247.5 215.5,248.5 217.5,248.5C 217.525,251.179 218.858,252.512 221.5,252.5C 243.833,274.5 266.167,296.5 288.5,318.5C 288.427,320.027 289.094,321.027 290.5,321.5C 293.607,323.765 296.607,326.265 299.5,329C 314.167,329.667 328.833,329.667 343.5,329C 343.198,326.959 343.532,324.792 344.5,322.5C 344.5,317.833 344.5,313.167 344.5,308.5C 331.5,308.5 318.5,308.5 305.5,308.5C 305.833,258.496 305.5,208.496 304.5,158.5C 302.712,159.283 301.712,160.616 301.5,162.5C 301.5,163.167 301.167,163.5 300.5,163.5C 298.801,163.34 297.134,163.506 295.5,164C 296.167,164.333 296.833,164.667 297.5,165C 294.583,165.662 293.25,167.495 293.5,170.5C 291.5,172.167 289.5,173.833 287.5,175.5C 282.823,174.912 281.156,176.579 282.5,180.5C 275.86,186.806 269.193,193.139 262.5,199.5C 261.167,199.5 260.5,200.167 260.5,201.5C 259.167,201.5 258.5,202.167 258.5,203.5C 252.137,209.864 245.471,215.864 238.5,221.5C 237.167,221.167 235.833,220.833 234.5,220.5C 232.833,219.5 231.5,218.167 230.5,216.5C 230.5,215.5 230.5,214.5 230.5,213.5C 229.167,213.5 227.833,213.5 226.5,213.5C 214.527,202.194 202.86,190.527 191.5,178.5C 190.73,176.065 189.063,174.731 186.5,174.5C 179.035,167.536 171.702,160.369 164.5,153C 161.444,151.582 158.444,151.082 155.5,151.5C 153.503,217.158 152.837,283.158 153.5,349.5C 146.5,349.5 139.5,349.5 132.5,349.5C 132.831,321.328 132.498,293.328 131.5,265.5C 131.168,222.997 131.501,180.663 132.5,138.5C 133.477,135.713 133.81,132.713 133.5,129.5C 147.167,129.5 160.833,129.5 174.5,129.5C 187.15,141.413 199.817,153.413 212.5,165.5C 212.525,168.179 213.858,169.512 216.5,169.5C 223.167,176.167 229.833,182.833 236.5,189.5C 237.766,191.498 239.432,191.498 241.5,189.5C 243.61,186.31 246.276,183.644 249.5,181.5C 250.127,180.583 250.461,179.583 250.5,178.5C 251.5,176.833 252.833,175.5 254.5,174.5C 258.441,172.229 261.774,169.229 264.5,165.5C 276.66,153.174 288.993,141.007 301.5,129C 310.079,128.184 318.579,128.351 327,129.5C 327.5,182.166 327.667,234.832 327.5,287.5C 328.5,287.5 329.5,287.5 330.5,287.5 Z"/></g>
<g><path style="opacity:0.765" fill="#ada1a6" d="M 300.5,163.5 C 298.5,166.167 296.167,168.5 293.5,170.5C 293.25,167.495 294.583,165.662 297.5,165C 296.833,164.667 296.167,164.333 295.5,164C 297.134,163.506 298.801,163.34 300.5,163.5 Z"/></g>
<g><path style="opacity:0.776" fill="#969596" d="M 212.5,165.5 C 214.167,166.5 215.5,167.833 216.5,169.5C 213.858,169.512 212.525,168.179 212.5,165.5 Z"/></g>
<g><path style="opacity:0.224" fill="#a7a4a2" d="M 264.5,165.5 C 261.774,169.229 258.441,172.229 254.5,174.5C 257.231,170.766 260.564,167.766 264.5,165.5 Z"/></g>
<g><path style="opacity:0.765" fill="#919191" d="M 186.5,174.5 C 189.063,174.731 190.73,176.065 191.5,178.5C 189.539,177.54 187.873,176.207 186.5,174.5 Z"/></g>
<g><path style="opacity:0.996" fill="#b3b2b1" d="M 287.5,175.5 C 286.167,177.5 284.5,179.167 282.5,180.5C 281.156,176.579 282.823,174.912 287.5,175.5 Z"/></g>
<g><path style="opacity:0.918" fill="#b7b6b4" d="M 250.5,178.5 C 250.461,179.583 250.127,180.583 249.5,181.5C 246.276,183.644 243.61,186.31 241.5,189.5C 239.432,191.498 237.766,191.498 236.5,189.5C 241.421,186.256 246.087,182.59 250.5,178.5 Z"/></g>
<g><path style="opacity:0.016" fill="#404040" d="M 262.5,199.5 C 262.167,200.5 261.5,201.167 260.5,201.5C 260.5,200.167 261.167,199.5 262.5,199.5 Z"/></g>
<g><path style="opacity:0.016" fill="#3f3d3d" d="M 260.5,201.5 C 260.167,202.5 259.5,203.167 258.5,203.5C 258.5,202.167 259.167,201.5 260.5,201.5 Z"/></g>
<g><path style="opacity:0.953" fill="#9a9999" d="M 226.5,213.5 C 227.833,213.5 229.167,213.5 230.5,213.5C 230.5,214.5 230.5,215.5 230.5,216.5C 228.878,215.878 227.545,214.878 226.5,213.5 Z"/></g>
<g><path style="opacity:0.482" fill="#777474" d="M 234.5,220.5 C 235.833,220.833 237.167,221.167 238.5,221.5C 236.872,222.853 235.538,222.519 234.5,220.5 Z"/></g>
<g><path style="opacity:0.3" fill="#b6b5b3" d="M 186.5,218.5 C 184.629,218.141 183.129,217.141 182,215.5C 181.217,225.547 181.383,235.547 182.5,245.5C 181.883,245.389 181.383,245.056 181,244.5C 180.168,234.151 180.334,223.817 181.5,213.5C 183.855,214.522 185.522,216.188 186.5,218.5 Z"/></g>
<g><path style="opacity:0.737" fill="#8f8e8d" d="M 210.5,241.5 C 212.167,242.5 213.5,243.833 214.5,245.5C 211.858,245.512 210.525,244.179 210.5,241.5 Z"/></g>
<g><path style="opacity:0.282" fill="#545152" d="M 214.5,245.5 C 215.833,246.167 216.833,247.167 217.5,248.5C 215.5,248.5 214.5,247.5 214.5,245.5 Z"/></g>
<g><path style="opacity:0.182" fill="#bdb8b8" d="M 344.5,322.5 C 343.515,318.366 343.182,314.032 343.5,309.5C 330.727,310.379 318.227,310.713 306,310.5C 304.916,309.335 304.083,308.002 303.5,306.5C 304.109,268.904 304.442,231.57 304.5,194.5C 304.167,183.5 303.833,172.5 303.5,161.5C 302.817,161.863 302.15,162.196 301.5,162.5C 301.712,160.616 302.712,159.283 304.5,158.5C 305.5,208.496 305.833,258.496 305.5,308.5C 318.5,308.5 331.5,308.5 344.5,308.5C 344.5,313.167 344.5,317.833 344.5,322.5 Z"/></g>
<g><path style="opacity:0.82" fill="#9d908e" d="M 217.5,248.5 C 219.167,249.5 220.5,250.833 221.5,252.5C 218.858,252.512 217.525,251.179 217.5,248.5 Z"/></g>
<g><path style="opacity:0.264" fill="#bdbbb9" d="M 155.5,151.5 C 154.504,217.762 154.17,284.096 154.5,350.5C 146.833,350.5 139.167,350.5 131.5,350.5C 131.5,322.167 131.5,293.833 131.5,265.5C 132.498,293.328 132.831,321.328 132.5,349.5C 139.5,349.5 146.5,349.5 153.5,349.5C 152.837,283.158 153.503,217.158 155.5,151.5 Z"/></g>
<g><path style="opacity:0.529" fill="#c5c5c5" d="M 330.5,287.5 C 342.88,286.854 354.88,287.521 366.5,289.5C 354.402,288.852 342.402,288.186 330.5,287.5 Z"/></g>
<g><path style="opacity:0.471" fill="#6f6f6f" d="M 249.5,312.5 C 251.5,312.5 252.5,313.5 252.5,315.5C 251.167,314.833 250.167,313.833 249.5,312.5 Z"/></g>
<g><path style="opacity:0.89" fill="#9b9a9a" d="M 252.5,315.5 C 255.179,315.525 256.512,316.858 256.5,319.5C 254.833,318.5 253.5,317.167 252.5,315.5 Z"/></g>
<g><path style="opacity:0.302" fill="#595658" d="M 288.5,318.5 C 289.906,318.973 290.573,319.973 290.5,321.5C 289.094,321.027 288.427,320.027 288.5,318.5 Z"/></g>
<g><path style="opacity:0.992" fill="#b1adac" d="M 256.5,319.5 C 258.044,319.703 259.378,320.37 260.5,321.5C 261.086,321.291 261.586,320.957 262,320.5C 262.505,322.518 263.005,324.518 263.5,326.5C 260.833,324.5 258.5,322.167 256.5,319.5 Z"/></g>
<g><path style="opacity:0.617" fill="#b8b4b3" d="M 366.5,290.5 C 366.5,310.5 366.5,330.5 366.5,350.5C 339.661,350.831 312.995,350.498 286.5,349.5C 312.833,349.5 339.167,349.5 365.5,349.5C 365.17,329.66 365.503,309.993 366.5,290.5 Z"/></g>
</svg>
